<svg width="350" height="281" viewBox="0 0 350 281" fill="none" xmlns="http://www.w3.org/2000/svg">
<path d="M27.115 160.17C27.4083 159.62 27.9033 159.235 28.6 159.015C29.2967 158.795 30.1767 158.685 31.24 158.685C32.3033 158.685 33.1467 158.777 33.77 158.96C34.3933 159.143 34.87 159.363 35.2 159.62C35.53 159.877 35.7867 160.243 35.97 160.72C36.1533 161.343 36.245 162.297 36.245 163.58V194.105C36.245 194.948 36.2083 195.59 36.135 196.03C36.0983 196.433 35.9333 196.91 35.64 197.46C35.1267 198.45 33.6967 198.945 31.35 198.945C28.7833 198.945 27.28 198.267 26.84 196.91C26.62 196.287 26.51 195.333 26.51 194.05V182.885H11.935V194.105C11.935 194.948 11.8983 195.59 11.825 196.03C11.7883 196.433 11.6233 196.91 11.33 197.46C10.8167 198.45 9.38667 198.945 7.04 198.945C4.47333 198.945 2.97 198.267 2.53 196.91C2.31 196.287 2.2 195.333 2.2 194.05V163.525C2.2 162.682 2.21833 162.058 2.255 161.655C2.32833 161.215 2.51167 160.72 2.805 160.17C3.31833 159.18 4.74833 158.685 7.095 158.685C9.66167 158.685 11.1833 159.363 11.66 160.72C11.8433 161.343 11.935 162.297 11.935 163.58V174.8H26.51V163.525C26.51 162.682 26.5283 162.058 26.565 161.655C26.6383 161.215 26.8217 160.72 27.115 160.17ZM64.422 161.545L79.272 192.235C79.8954 193.482 80.207 194.417 80.207 195.04C80.207 196.36 79.1437 197.552 77.017 198.615C75.7704 199.238 74.7804 199.55 74.047 199.55C73.3504 199.55 72.7637 199.385 72.287 199.055C71.847 198.725 71.517 198.377 71.297 198.01C71.1137 197.643 70.8387 197.093 70.472 196.36L67.612 190.42H52.377L49.517 196.36C49.1504 197.093 48.857 197.625 48.637 197.955C48.4537 198.285 48.1237 198.633 47.647 199C47.207 199.33 46.6204 199.495 45.887 199.495C45.1904 199.495 44.2187 199.183 42.972 198.56C40.8454 197.533 39.782 196.36 39.782 195.04C39.782 194.417 40.0937 193.482 40.717 192.235L55.567 161.49C55.9704 160.647 56.5754 159.968 57.382 159.455C58.2254 158.942 59.1054 158.685 60.022 158.685C62.002 158.685 63.4687 159.638 64.422 161.545ZM59.967 174.745L56.337 182.28H63.652L59.967 174.745ZM112.236 159.29C114.4 160.353 115.481 161.527 115.481 162.81C115.481 163.397 115.206 164.277 114.656 165.45L99.4762 196.25C99.0729 197.057 98.4495 197.717 97.6062 198.23C96.7995 198.707 95.9562 198.945 95.0762 198.945H94.5262C93.6095 198.945 92.7295 198.707 91.8862 198.23C91.0795 197.717 90.4745 197.057 90.0712 196.25L74.8912 165.45C74.3412 164.277 74.0662 163.397 74.0662 162.81C74.0662 161.527 75.1479 160.353 77.3112 159.29C78.5212 158.667 79.4379 158.355 80.0612 158.355C80.7212 158.355 81.2162 158.428 81.5462 158.575C81.8762 158.722 82.1879 158.978 82.4812 159.345C82.8112 159.785 83.1045 160.28 83.3612 160.83C83.6545 161.343 84.3695 162.865 85.5062 165.395C86.6429 167.888 87.8529 170.547 89.1362 173.37C90.4562 176.193 91.6845 178.87 92.8212 181.4C93.9945 183.893 94.6545 185.287 94.8012 185.58L105.801 161.49C106.095 160.793 106.351 160.243 106.571 159.84C107.231 158.85 108.038 158.355 108.991 158.355C109.945 158.355 111.026 158.667 112.236 159.29ZM128.752 189.265H145.692C146.536 189.265 147.159 189.302 147.562 189.375C148.002 189.412 148.497 189.577 149.047 189.87C150.037 190.383 150.532 191.813 150.532 194.16C150.532 196.727 149.854 198.23 148.497 198.67C147.874 198.89 146.921 199 145.637 199H123.857C121.291 199 119.787 198.303 119.347 196.91C119.127 196.323 119.017 195.388 119.017 194.105V163.525C119.017 161.655 119.366 160.39 120.062 159.73C120.759 159.033 122.079 158.685 124.022 158.685H145.692C146.536 158.685 147.159 158.722 147.562 158.795C148.002 158.832 148.497 158.997 149.047 159.29C150.037 159.803 150.532 161.233 150.532 163.58C150.532 166.147 149.854 167.65 148.497 168.09C147.874 168.31 146.921 168.42 145.637 168.42H128.752V173.975H139.642C140.486 173.975 141.109 174.012 141.512 174.085C141.952 174.122 142.447 174.287 142.997 174.58C143.987 175.093 144.482 176.523 144.482 178.87C144.482 181.437 143.786 182.94 142.392 183.38C141.769 183.6 140.816 183.71 139.532 183.71H128.752V189.265ZM169.002 163.525C169.002 162.682 169.02 162.058 169.057 161.655C169.13 161.215 169.313 160.72 169.607 160.17C170.12 159.18 171.55 158.685 173.897 158.685C176.463 158.685 177.985 159.363 178.462 160.72C178.645 161.343 178.737 162.297 178.737 163.58V194.16C178.737 195.04 178.7 195.682 178.627 196.085C178.59 196.488 178.425 196.965 178.132 197.515C177.618 198.505 176.188 199 173.842 199C171.275 199 169.772 198.303 169.332 196.91C169.112 196.323 169.002 195.388 169.002 194.105V163.525ZM246.274 158.905C248.731 159.785 249.959 160.958 249.959 162.425C249.959 162.902 249.739 163.8 249.299 165.12L238.739 195.645C238.666 195.902 238.537 196.213 238.354 196.58C238.171 196.947 237.676 197.442 236.869 198.065C236.099 198.652 235.164 198.945 234.064 198.945C233.001 198.945 232.066 198.652 231.259 198.065C230.489 197.442 229.976 196.837 229.719 196.25L223.284 177.275C219.214 189.302 217.142 195.425 217.069 195.645C216.996 195.865 216.831 196.177 216.574 196.58C216.317 196.983 216.024 197.35 215.694 197.68C214.851 198.523 213.842 198.945 212.669 198.945C211.496 198.945 210.524 198.67 209.754 198.12C209.021 197.57 208.526 197.02 208.269 196.47L207.884 195.645L197.269 165.12C196.866 163.91 196.664 163.012 196.664 162.425C196.664 160.958 197.892 159.803 200.349 158.96C201.412 158.593 202.366 158.41 203.209 158.41C204.089 158.41 204.749 158.703 205.189 159.29C205.666 159.877 206.087 160.775 206.454 161.985L212.504 180.355L218.499 162.26C219.012 160.72 219.947 159.657 221.304 159.07C221.891 158.813 222.642 158.685 223.559 158.685C224.512 158.685 225.392 158.997 226.199 159.62C227.006 160.207 227.519 160.793 227.739 161.38L234.064 180.465L240.114 161.985C240.407 161.142 240.646 160.518 240.829 160.115C241.012 159.712 241.342 159.327 241.819 158.96C242.332 158.557 242.956 158.355 243.689 158.355C244.422 158.355 245.284 158.538 246.274 158.905ZM272.405 158.19C277.832 158.19 282.543 160.152 286.54 164.075C290.537 167.998 292.535 172.875 292.535 178.705C292.535 184.498 290.628 189.448 286.815 193.555C283.002 197.625 278.308 199.66 272.735 199.66C267.162 199.66 262.413 197.643 258.49 193.61C254.603 189.577 252.66 184.773 252.66 179.2C252.66 176.157 253.21 173.315 254.31 170.675C255.41 167.998 256.877 165.762 258.71 163.965C260.543 162.168 262.652 160.757 265.035 159.73C267.418 158.703 269.875 158.19 272.405 158.19ZM262.395 178.925C262.395 182.188 263.44 184.847 265.53 186.9C267.657 188.917 270.022 189.925 272.625 189.925C275.228 189.925 277.575 188.935 279.665 186.955C281.755 184.975 282.8 182.317 282.8 178.98C282.8 175.643 281.737 172.967 279.61 170.95C277.52 168.933 275.173 167.925 272.57 167.925C269.967 167.925 267.62 168.952 265.53 171.005C263.44 173.022 262.395 175.662 262.395 178.925ZM322.647 160.39C323.013 159.73 323.545 159.29 324.242 159.07C324.938 158.85 325.8 158.74 326.827 158.74C327.89 158.74 328.733 158.832 329.357 159.015C330.017 159.198 330.493 159.418 330.787 159.675C331.117 159.932 331.355 160.317 331.502 160.83C331.722 161.417 331.832 162.352 331.832 163.635V194.16C331.832 195.04 331.795 195.682 331.722 196.085C331.685 196.488 331.52 196.965 331.227 197.515C330.713 198.505 329.283 199 326.937 199C325.507 199 324.517 198.89 323.967 198.67C323.417 198.45 322.958 198.102 322.592 197.625C314.342 186.625 308.915 179.438 306.312 176.065V194.16C306.312 195.04 306.275 195.682 306.202 196.085C306.165 196.488 306 196.965 305.707 197.515C305.193 198.505 303.763 199 301.417 199C299.143 199 297.75 198.505 297.237 197.515C296.943 196.965 296.76 196.47 296.687 196.03C296.65 195.59 296.632 194.948 296.632 194.105V163.415C296.632 162.022 296.797 161.013 297.127 160.39C297.493 159.73 298.025 159.29 298.722 159.07C299.418 158.85 300.317 158.74 301.417 158.74C302.517 158.74 303.378 158.85 304.002 159.07C304.662 159.253 305.12 159.473 305.377 159.73C305.523 159.84 305.945 160.317 306.642 161.16C314.378 171.683 319.548 178.632 322.152 182.005V163.415C322.152 162.022 322.317 161.013 322.647 160.39Z" fill="#2A2A37"/>
<path d="M18.879 266.124H42.543C44.457 266.124 45.849 266.356 46.719 266.82C47.589 267.226 48.169 267.893 48.459 268.821C48.749 269.749 48.894 270.996 48.894 272.562C48.894 274.07 48.749 275.288 48.459 276.216C48.169 277.144 47.676 277.782 46.98 278.13C45.878 278.71 44.37 279 42.456 279H11.136C7.076 279 4.698 277.898 4.002 275.694C3.654 274.766 3.48 273.287 3.48 271.257V222.885C3.48 221.551 3.509 220.565 3.567 219.927C3.683 219.231 3.973 218.448 4.437 217.578C5.249 216.012 7.511 215.229 11.223 215.229C15.283 215.229 17.69 216.302 18.444 218.448C18.734 219.434 18.879 220.942 18.879 222.972V266.124ZM84.9695 214.446C93.5535 214.446 101.007 217.549 107.329 223.755C113.651 229.961 116.812 237.675 116.812 246.897C116.812 256.061 113.796 263.891 107.764 270.387C101.732 276.825 94.3075 280.044 85.4915 280.044C76.6755 280.044 69.1645 276.854 62.9585 270.474C56.8105 264.094 53.7365 256.496 53.7365 247.68C53.7365 242.866 54.6065 238.371 56.3465 234.195C58.0865 229.961 60.4065 226.423 63.3065 223.581C66.2065 220.739 69.5415 218.506 73.3115 216.882C77.0815 215.258 80.9675 214.446 84.9695 214.446ZM69.1355 247.245C69.1355 252.407 70.7885 256.612 74.0945 259.86C77.4585 263.05 81.1995 264.645 85.3175 264.645C89.4355 264.645 93.1475 263.079 96.4535 259.947C99.7595 256.815 101.413 252.61 101.413 247.332C101.413 242.054 99.7305 237.82 96.3665 234.63C93.0605 231.44 89.3485 229.845 85.2305 229.845C81.1125 229.845 77.4005 231.469 74.0945 234.717C70.7885 237.907 69.1355 242.083 69.1355 247.245ZM121.994 215.142H170.366C172.222 215.142 173.585 215.374 174.455 215.838C175.325 216.244 175.905 216.911 176.195 217.839C176.485 218.767 176.63 219.985 176.63 221.493C176.63 223.001 176.485 224.219 176.195 225.147C175.905 226.017 175.412 226.626 174.716 226.974C173.672 227.496 172.193 227.757 170.279 227.757H153.662V271.518C153.662 272.852 153.604 273.838 153.488 274.476C153.43 275.114 153.169 275.868 152.705 276.738C152.299 277.55 151.545 278.13 150.443 278.478C149.341 278.826 147.891 279 146.093 279C144.295 279 142.845 278.826 141.743 278.478C140.699 278.13 139.945 277.55 139.481 276.738C139.075 275.868 138.814 275.114 138.698 274.476C138.64 273.78 138.611 272.765 138.611 271.431V227.757H121.907C120.051 227.757 118.688 227.554 117.818 227.148C116.948 226.684 116.368 225.988 116.078 225.06C115.788 224.132 115.643 222.914 115.643 221.406C115.643 219.898 115.788 218.709 116.078 217.839C116.368 216.911 116.861 216.273 117.557 215.925C118.601 215.403 120.08 215.142 121.994 215.142ZM186.13 215.142H234.502C236.358 215.142 237.721 215.374 238.591 215.838C239.461 216.244 240.041 216.911 240.331 217.839C240.621 218.767 240.766 219.985 240.766 221.493C240.766 223.001 240.621 224.219 240.331 225.147C240.041 226.017 239.548 226.626 238.852 226.974C237.808 227.496 236.329 227.757 234.415 227.757H217.798V271.518C217.798 272.852 217.74 273.838 217.624 274.476C217.566 275.114 217.305 275.868 216.841 276.738C216.435 277.55 215.681 278.13 214.579 278.478C213.477 278.826 212.027 279 210.229 279C208.431 279 206.981 278.826 205.879 278.478C204.835 278.13 204.081 277.55 203.617 276.738C203.211 275.868 202.95 275.114 202.834 274.476C202.776 273.78 202.747 272.765 202.747 271.431V227.757H186.043C184.187 227.757 182.824 227.554 181.954 227.148C181.084 226.684 180.504 225.988 180.214 225.06C179.924 224.132 179.779 222.914 179.779 221.406C179.779 219.898 179.924 218.709 180.214 217.839C180.504 216.911 180.997 216.273 181.693 215.925C182.737 215.403 184.216 215.142 186.13 215.142ZM270.835 214.446C279.419 214.446 286.872 217.549 293.194 223.755C299.516 229.961 302.677 237.675 302.677 246.897C302.677 256.061 299.661 263.891 293.629 270.387C287.597 276.825 280.173 280.044 271.357 280.044C262.541 280.044 255.03 276.854 248.824 270.474C242.676 264.094 239.602 256.496 239.602 247.68C239.602 242.866 240.472 238.371 242.212 234.195C243.952 229.961 246.272 226.423 249.172 223.581C252.072 220.739 255.407 218.506 259.177 216.882C262.947 215.258 266.833 214.446 270.835 214.446ZM255.001 247.245C255.001 252.407 256.654 256.612 259.96 259.86C263.324 263.05 267.065 264.645 271.183 264.645C275.301 264.645 279.013 263.079 282.319 259.947C285.625 256.815 287.278 252.61 287.278 247.332C287.278 242.054 285.596 237.82 282.232 234.63C278.926 231.44 275.214 229.845 271.096 229.845C266.978 229.845 263.266 231.469 259.96 234.717C256.654 237.907 255.001 242.083 255.001 247.245ZM320.437 249.855L320.524 249.159C320.524 246.665 321.22 244.693 322.612 243.243C324.062 241.793 325.628 240.836 327.31 240.372C328.992 239.908 330.529 239.125 331.921 238.023C333.371 236.921 334.096 235.442 334.096 233.586C334.096 231.672 333.545 230.193 332.443 229.149C331.399 228.105 329.804 227.583 327.658 227.583C325.512 227.583 323.917 227.931 322.873 228.627C321.887 229.265 321.278 229.932 321.046 230.628L320.785 231.672C320.263 233.18 319.654 234.34 318.958 235.152C318.262 235.906 317.363 236.283 316.261 236.283C315.159 236.283 313.709 235.935 311.911 235.239C308.431 233.905 306.691 232.252 306.691 230.28C306.691 229.41 306.865 228.54 307.213 227.67C307.561 226.742 307.851 225.988 308.083 225.408C308.315 224.77 308.924 223.697 309.91 222.189C310.954 220.681 312.114 219.376 313.39 218.274C314.724 217.114 316.58 216.07 318.958 215.142C321.336 214.156 323.975 213.663 326.875 213.663C333.023 213.663 338.04 215.635 341.926 219.579C345.812 223.523 347.755 228.105 347.755 233.325C347.755 235.819 347.291 238.139 346.363 240.285C345.493 242.373 344.42 244.026 343.144 245.244C340.592 247.68 338.214 249.304 336.01 250.116L334.618 250.551C334.618 251.537 334.56 252.291 334.444 252.813C334.386 253.335 334.125 253.915 333.661 254.553C333.255 255.133 332.53 255.568 331.486 255.858C330.5 256.09 329.166 256.206 327.484 256.206C325.802 256.206 324.439 256.061 323.395 255.771C322.409 255.481 321.713 254.988 321.307 254.292C320.901 253.596 320.64 252.987 320.524 252.465C320.466 251.885 320.437 251.015 320.437 249.855ZM320.089 265.428C320.553 264.5 321.365 263.833 322.525 263.427C323.743 263.021 325.628 262.818 328.18 262.818C330.732 262.818 332.559 263.398 333.661 264.558C334.821 265.66 335.401 267.835 335.401 271.083C335.401 273.403 335.111 275.143 334.531 276.303C333.951 277.405 333.052 278.159 331.834 278.565C330.674 278.913 328.847 279.087 326.353 279.087C323.859 279.087 321.945 278.478 320.611 277.26C319.625 276.274 319.132 274.592 319.132 272.214V270.822C319.132 269.488 319.161 268.473 319.219 267.777C319.335 267.081 319.625 266.298 320.089 265.428Z" fill="#76946A"/>
<path d="M168.375 0C134.531 0 107 27.5314 107 61.375C107 95.2186 134.531 122.75 168.375 122.75C202.219 122.75 229.75 95.2186 229.75 61.375C229.75 27.5314 202.219 0 168.375 0ZM168.375 114.567C139.049 114.567 115.183 90.7014 115.183 61.375C115.183 32.0486 139.049 8.18333 168.375 8.18333C197.701 8.18333 221.567 32.0486 221.567 61.375C221.567 90.7014 197.701 114.567 168.375 114.567Z" fill="#2A2A37"/>
<path d="M135.57 43.8325C137.626 44.7429 140.05 43.8121 140.966 41.7457C142.081 39.2242 144.597 37.5978 147.369 37.5978C150.131 37.5978 152.637 39.2242 153.757 41.7508C154.437 43.2801 155.931 44.1905 157.501 44.1905C158.053 44.1905 158.616 44.078 159.153 43.8376C161.219 42.9221 162.15 40.508 161.24 38.4417C158.815 32.964 153.374 29.4196 147.369 29.4196C141.354 29.4196 135.902 32.964 133.478 38.4468C132.568 40.4978 133.503 42.9171 135.57 43.8325Z" fill="#2A2A37"/>
<path d="M177.591 43.8326C178.134 44.0679 178.691 44.1855 179.243 44.1855C180.814 44.1855 182.312 43.2751 182.987 41.7458C184.102 39.2243 186.619 37.5927 189.391 37.5927C192.158 37.5927 194.659 39.2192 195.779 41.7407C196.689 43.807 199.108 44.7379 201.175 43.8275C203.241 42.9171 204.172 40.4979 203.262 38.4316C200.837 32.9488 195.395 29.4044 189.39 29.4044C183.381 29.4044 177.929 32.9488 175.5 38.4265C174.594 40.4979 175.53 42.912 177.591 43.8326Z" fill="#2A2A37"/>
<path d="M206.99 60.071C205.425 58.2961 203.179 57.2835 200.827 57.2835H135.923C133.565 57.2835 131.32 58.2962 129.76 60.071C128.21 61.8304 127.484 64.1677 127.776 66.4795C130.333 86.8972 147.784 102.292 168.376 102.292C188.967 102.292 206.418 86.8972 208.975 66.4795C209.262 64.1677 208.54 61.8303 206.99 60.071ZM150.888 89.0046C156.104 85.6904 162.15 83.8797 168.374 83.8797C174.597 83.8797 180.644 85.6903 185.86 89.0046C180.776 92.2371 174.766 94.1089 168.374 94.1089C161.981 94.1089 155.971 92.2369 150.888 89.0046ZM192.418 83.5473C185.442 78.4634 177.039 75.6964 168.375 75.6964C159.711 75.6964 151.313 78.4634 144.337 83.5473C139.846 78.6834 136.788 72.4486 135.923 65.4667H200.853C199.979 72.4481 196.914 78.6831 192.418 83.5473Z" fill="#2A2A37"/>
</svg>
