<svg width="94" height="94" viewBox="0 0 94 94" fill="none" xmlns="http://www.w3.org/2000/svg">
<path d="M47 0.125C21.152 0.125 0.125 21.152 0.125 47C0.125 72.848 21.152 93.875 47 93.875C72.848 93.875 93.875 72.848 93.875 47C93.875 21.152 72.848 0.125 47 0.125ZM47 87.625C24.602 87.625 6.375 69.398 6.375 47C6.375 24.602 24.602 6.375 47 6.375C69.398 6.375 87.625 24.602 87.625 47C87.625 69.398 69.398 87.625 47 87.625Z" fill="#9281B7"/>
<path d="M21.945 33.602C23.5153 34.2973 25.3669 33.5864 26.0661 32.0082C26.9176 30.0824 28.8395 28.8402 30.9567 28.8402C33.0661 28.8402 34.9801 30.0824 35.8356 32.0121C36.3551 33.1801 37.4958 33.8754 38.695 33.8754C39.1169 33.8754 39.5465 33.7895 39.9567 33.6059C41.5348 32.9066 42.2458 31.0629 41.5505 29.4848C39.6989 25.3012 35.5427 22.5942 30.9565 22.5942C26.3627 22.5942 22.1987 25.3012 20.3475 29.4887C19.6522 31.0551 20.3668 32.9028 21.945 33.602Z" fill="#9281B7"/>
<path d="M54.039 33.602C54.4531 33.7817 54.8788 33.8715 55.3007 33.8715C56.4999 33.8715 57.6445 33.1762 58.1601 32.0082C59.0116 30.0824 60.9335 28.8363 63.0507 28.8363C65.164 28.8363 67.0741 30.0785 67.9296 32.0043C68.6249 33.5824 70.4726 34.2934 72.0507 33.5981C73.6288 32.9028 74.3398 31.0551 73.6445 29.477C71.7929 25.2895 67.6367 22.5825 63.0505 22.5825C58.4607 22.5825 54.2966 25.2895 52.4415 29.4731C51.7501 31.0551 52.4647 32.8989 54.039 33.602Z" fill="#9281B7"/>
<path d="M76.492 46.004C75.2967 44.6485 73.5818 43.8751 71.785 43.8751H22.215C20.4142 43.8751 18.6994 44.6485 17.508 46.004C16.3244 47.3478 15.7697 49.1329 15.9924 50.8985C17.9455 66.4925 31.2734 78.2505 47.0004 78.2505C62.7274 78.2505 76.0554 66.4925 78.0084 50.8985C78.2271 49.1329 77.6756 47.3477 76.492 46.004ZM33.644 68.102C37.6284 65.5708 42.2456 64.1879 46.999 64.1879C51.7524 64.1879 56.3701 65.5707 60.354 68.102C56.4712 70.5708 51.8813 72.0004 46.999 72.0004C42.1167 72.0004 37.5263 70.5707 33.644 68.102ZM65.363 63.934C60.0349 60.0512 53.617 57.9379 47 57.9379C40.383 57.9379 33.969 60.0512 28.641 63.934C25.2113 60.2192 22.8754 55.4574 22.2152 50.125H71.8052C71.1372 55.457 68.7966 60.219 65.363 63.934Z" fill="#9281B7"/>
</svg>
